# AST/ASF file generated using VICON BodyLanguage
# -----------------------------------------------
:version 1.10
:name VICON
:units
  mass 1.0
  length 0.45
  angle deg
:documentation
   .ast/.asf automatically generated from VICON data using
   VICON BodyBuilder and BodyLanguage model FoxedUp or BRILLIANT.MOD
:root
   order TX TY TZ RX RY RZ
   axis XYZ
   position 0 0 0  
   orientation 0 0 0 
:bonedata
  begin
     id 1 
     name lhipjoint
     direction 0.661853 -0.702389 0.261917 
     length 2.64193 
     axis 0 0 0  XYZ
  end
  begin
     id 2 
     name lfemur
     direction 0.34202 -0.939693 0  
     length 7.01722  
     axis 0 0 20  XYZ
    dof rx ry rz
    limits (-160.0 20.0)
           (-70.0 70.0)
           (-60.0 70.0)
  end
  begin
     id 3 
     name ltibia
     direction 0.34202 -0.939693 0   
     length 8.25008   
     axis 0 0 20   XYZ
    dof rx
    limits (-10.0 170.0)
  end
  begin
     id 4 
     name lfoot
     direction 0.0709916 -0.195048 0.978221   
     length 2.31941   
     axis -90 7.62852e-016 20   XYZ
    dof rx rz
    limits (-45.0 90.0)
           (-70.0 20.0)
  end
  begin
     id 5 
     name ltoes
     direction 1.53586e-011 -4.22017e-011 1   
     length 1.16486   
     axis -90 7.62852e-016 20   XYZ
    dof rx
    limits (-90.0 20.0)
  end
  begin
     id 6 
     name rhipjoint
     direction -0.638185 -0.721362 0.268992   
     length 2.57244  
     axis 0 0 0  XYZ 
  end
  begin
     id 7 
     name rfemur
     direction -0.34202 -0.939693 0   
     length 7.07017   
     axis 0 0 -20   XYZ
    dof rx ry rz
    limits (-160.0 20.0)
           (-70.0 70.0)
           (-70.0 60.0)
  end
  begin
     id 8 
     name rtibia
     direction -0.34202 -0.939693 0   
     length 8.20386   
     axis 0 0 -20   XYZ
    dof rx
    limits (-10.0 170.0)
 end
 begin
     id 9 
     name rfoot
     direction -0.0822429 -0.225961 0.970658   
     length 2.32215  
     axis -90 -7.62852e-016 -20   XYZ
    dof rx rz
    limits (-45.0 90.0)
           (-20.0 70.0)
  end
  begin
     id 10 
     name rtoes
     direction -1.53597e-011 -4.21689e-011 1   
     length 1.16333   
     axis -90 -7.62852e-016 -20   XYZ
    dof rx
    limits (-90.0 20.0)
  end
  begin
     id 11 
     name lowerback
     direction -0.0131557 0.998589 -0.0514484   
     length 2.14993   
     axis 0 0 0   XYZ
    dof rx ry rz
    limits (-20.0 45.0)
           (-30.0 30.0)
           (-30.0 30.0)
  end
  begin
     id 12 
     name upperback
     direction -0.000776481 0.999993 0.00352685   
     length 2.15301   
     axis 0 0 0   XYZ
    dof rx ry rz
    limits (-20.0 45.0)
           (-30.0 30.0)
           (-30.0 30.0)
  end
  begin
     id 13 
     name thorax
     direction 0.00438186 0.999609 0.0276143   
     length 2.15424   
     axis 0 0 0   XYZ
    dof rx ry rz
    limits (-20.0 45.0)
           (-30.0 30.0)
           (-30.0 30.0)
  end
  begin
     id 14 
     name lowerneck
     direction -0.0488006 0.998094 0.0377807   
     length 1.90481   
     axis 0 0 0   XYZ
    dof rx ry rz
    limits (-20.0 45.0)
           (-30.0 30.0)
           (-30.0 30.0)
  end
  begin
     id 15 
     name upperneck
     direction 0.0443769 0.990702 -0.12861   
     length 1.91305   
     axis 0 0 0   XYZ
    dof rx ry rz
    limits (-20.0 45.0)
           (-30.0 30.0)
           (-30.0 30.0)
  end
  begin
     id 16
     name head
     direction 0.0165599 0.998647 -0.0492982  
     length 1.92369  
     axis 0 0 0   XYZ
    dof rx ry rz
    limits (-20.0 45.0)
           (-30.0 30.0)
           (-30.0 30.0)
  end
  begin
     id 17 
     name lclavicle
     direction 0.911936 0.410197 -0.0105506  
     length 3.52622  
     axis 0 0 0   XYZ
    dof ry rz
    limits (-20.0 10.0)
           (0.0 20.0)
  end
  begin
     id 18 
     name lhumerus
     direction 1 -4.48974e-011 -2.48591e-028   
     length 5.47651   
     axis 180 -30 -90   XYZ
    dof rx ry rz
    limits (-60.0 90.0)
           (-90.0 90.0)
           (-90.0 90.0)
  end
  begin
     id 19
     name lradius
     direction 1 -4.48938e-011 -4.40099e-027   
     length 3.09058   
     axis 180 -30 -90   XYZ
    dof rx
    limits (-10.0 170.0)
  end
  begin
     id 20
     name lwrist
     direction 1 -4.49042e-011 -2.99852e-027   
     length 1.54529   
     axis 1.95339e-015 90 90   XYZ
    dof ry
    limits (-180.0 0.0)
 end
  begin
     id 21 
     name lhand
     direction 1 -4.48815e-011 -5.98193e-027   
     length 0.771611   
     axis 3.82337e-015 90 90   XYZ
    dof rx rz
    limits (-90.0 90.0)
           (-45.0 45.0)
  end
  begin
     id 22 
     name lfingers
     direction 1 -4.49034e-011 -1.1993e-026   
     length 0.622093   
     axis 7.64668e-015 90 90   XYZ
    dof rx
    limits (0.0 90.0)
  end
  begin
     id 23
     name lthumb
     direction 0.707107 -6.34867e-011 0.707107   
     length 0.893204   
     axis -90 45 -1.62303e-014   XYZ
    dof rx rz
    limits (-45.0 45.0)
           (-45.0 45.0)
  end
  begin
     id 24 
     name rclavicle
     direction -0.93442 0.355634 -0.0195692   
     length 3.62463  
     axis 0 0 0   XYZ 
    dof ry rz
    limits (-10.0 20.0)
           (-20.0 0.0)
  end
  begin
     id 25 
     name rhumerus
     direction -1 -4.48957e-011 -1.19147e-027  
     length 5.14182   
     axis 180 30 90   XYZ
    dof rx ry rz
    limits (-90.0 60.0)
           (-90.0 90.0)
           (-90.0 90.0)
  end
  begin
     id 26 
     name rradius
     direction -1 -4.48952e-011 -3.81062e-027   
     length 3.35565   
     axis 180 30 90   XYZ
    dof rx
    limits (-10.0 170.0)
  end
  begin
     id 27 
     name rwrist
     direction -1 -4.48973e-011 -2.99621e-027   
     length 1.67782   
     axis 1.95339e-015 -90 -90   XYZ
    dof ry
    limits (-180.0 0.0)
  end
  begin
     id 28
     name rhand
     direction -1 -4.48895e-011 -5.98727e-027   
     length 0.801042   
     axis 3.82337e-015 -90 -90   XYZ
    dof rx rz
    limits (-90.0 90.0)
           (-45.0 45.0)
  end
  begin
     id 29
     name rfingers
     direction -1 -4.49065e-011 -1.19972e-026   
     length 0.645821   
     axis 7.64668e-015 -90 -90   XYZ
    dof rx
    limits (0.0 90.0)
  end
  begin
     id 30
     name rthumb
     direction -0.707107 -6.34957e-011 0.707107   
     length 0.927273   
     axis -90 -45 1.62303e-014   XYZ
    dof rx rz
    limits (-45.0 45.0)
           (-45.0 45.0)
  end
:hierarchy
  begin
    root lhipjoint rhipjoint lowerback
    lhipjoint lfemur
    lfemur ltibia
    ltibia lfoot
    lfoot ltoes
    rhipjoint rfemur
    rfemur rtibia
    rtibia rfoot
    rfoot rtoes
    lowerback upperback
    upperback thorax
    thorax lowerneck lclavicle rclavicle
    lowerneck upperneck
    upperneck head
    lclavicle lhumerus
    lhumerus lradius
    lradius lwrist
    lwrist lhand lthumb
    lhand lfingers
    rclavicle rhumerus
    rhumerus rradius
    rradius rwrist
    rwrist rhand rthumb
    rhand rfingers
  end

#!OML:ASF E:\Style4\Style4.ASF
:FULLY-SPECIFIED
:DEGREES
555
root -0.660529 17.6407 -0.58129 0.483203 1.02325 1.45834
lowerback 8.37144 1.5383 -0.5843
upperback 4.99376 1.99906 -0.943794
thorax 0.487262 1.002 -0.798861
lowerneck 0.845369 -2.11594 -3.75577
upperneck 5.83323 -3.02531 4.83753
head 1.84023 -1.49661 2.14752
rclavicle -2.8625e-014 1.70955e-014
rhumerus 44.5825 -17.3161 -1.84775
rradius 59.9553
rwrist -37.4501
rhand 5.20197 10.9764
rfingers 7.12502
rthumb 30.5626 -16.5076
lclavicle -2.8625e-014 1.70955e-014
lhumerus 53.3328 15.9824 5.15978
lradius 69.8503
lwrist 29.1225
lhand 10.3047 23.9554
lfingers 7.12502
lthumb 35.4153 50.4134
rfemur -15.0507 -5.25222 20.1735
rtibia 36.3195
rfoot -21.0511 -16.4589
rtoes -9.82052
lfemur -15.9646 2.67331 -17.0715
ltibia 36.3904
lfoot -18.4803 7.71553
ltoes -17.5867
556
root -0.689688 17.6446 -0.575538 0.544794 1.9005 1.4577
lowerback 8.32566 1.6373 -0.63199
upperback 4.98169 2.12911 -0.965369
thorax 0.500361 1.06701 -0.803192
lowerneck 0.761466 -2.19225 -3.62693
upperneck 5.95393 -3.12769 4.80854
head 1.89563 -1.54337 2.1127
rclavicle 2.11209e-016 7.95139e-016
rhumerus 44.1703 -17.1689 -1.37605
rradius 60.3594
rwrist -37.9009
rhand 4.86326 10.9818
rfingers 7.12502
rthumb 30.2395 -16.5618
lclavicle 2.11209e-016 7.95139e-016
lhumerus 53.2412 15.9837 5.12984
lradius 69.8662
lwrist 29.2212
lhand 10.1327 23.8497
lfingers 7.12502
lthumb 35.2522 50.3465
rfemur -14.9136 -5.65267 20.2847
rtibia 36.1808
rfoot -21.1143 -16.8501
rtoes -9.49881
lfemur -16.1557 2.2641 -16.9869
ltibia 36.3137
lfoot -18.22 7.31088
ltoes -17.0164
557
root -0.718532 17.6496 -0.568497 0.566077 2.74452 1.48904
lowerback 8.3393 1.74743 -0.682587
upperback 4.96277 2.27264 -1.0058
thorax 0.474479 1.13896 -0.828343
lowerneck 0.676788 -2.3041 -3.79474
upperneck 5.9737 -3.28464 5.02934
head 1.93442 -1.61963 2.21309
rclavicle -1.22625e-014 -1.52567e-014
rhumerus 44.1424 -17.1059 -1.30854
rradius 60.3977
rwrist -38.0382
rhand 4.73951 11.0153
rfingers 7.12502
rthumb 30.1215 -16.5499
lclavicle -1.22625e-014 -1.52567e-014
lhumerus 53.1355 15.9325 5.1826
lradius 69.9891
lwrist 29.2899
lhand 9.92272 24.0396
lfingers 7.12502
lthumb 35.053 50.5833
rfemur -14.744 -6.03214 20.3574
rtibia 36.0665
rfoot -21.2255 -17.2259
rtoes -9.33558
lfemur -16.2616 1.84592 -16.9373
ltibia 36.1881
lfoot -17.9676 7.04301
ltoes -16.7401
558
root -0.746468 17.6551 -0.558215 0.580517 3.62512 1.5203
lowerback 8.32693 1.85081 -0.708524
upperback 4.97219 2.40983 -1.03636
thorax 0.492734 1.20817 -0.855225
lowerneck 0.650499 -2.38813 -3.76349
upperneck 5.94557 -3.39825 5.09409
head 1.93657 -1.67376 2.22661
rclavicle -9.88954e-015 1.46107e-014
rhumerus 44.6549 -17.2804 -1.88756
rradius 59.9867
rwrist -37.6136
rhand 5.05375 11.124
rfingers 7.12502
rthumb 30.4212 -16.3862
lclavicle -9.88954e-015 1.46107e-014
lhumerus 53.1625 15.9124 5.40171
lradius 70.0362
lwrist 29.226
lhand 9.8672 24.246
lfingers 7.12502
lthumb 35.0004 50.802
rfemur -14.5513 -6.43618 20.4258
rtibia 35.9625
rfoot -21.4222 -17.601
rtoes -9.09414
lfemur -16.3361 1.44171 -16.8926
ltibia 36.0309
lfoot -17.7786 6.77571
ltoes -16.7813
559
root -0.771239 17.6582 -0.549534 0.677978 4.45716 1.58274
lowerback 8.24454 1.97993 -0.721928
upperback 4.98298 2.58305 -1.1087
thorax 0.553853 1.29625 -0.93202
lowerneck 0.538135 -2.54479 -3.76099
upperneck 5.95314 -3.61096 5.22099
head 1.97327 -1.77536 2.2635
rclavicle 4.18317e-014 4.37326e-015
rhumerus 44.9598 -17.4298 -2.26473
rradius 59.7373
rwrist -37.3595
rhand 5.30403 11.1934
rfingers 7.12502
rthumb 30.6599 -16.2724
lclavicle 4.18317e-014 4.37326e-015
lhumerus 53.2797 15.9743 5.57658
lradius 69.982
lwrist 29.1439
lhand 10.0479 24.2376
lfingers 7.12502
lthumb 35.1718 50.7534
rfemur -14.4875 -6.85474 20.4499
rtibia 35.8995
rfoot -21.5791 -17.8961
rtoes -8.72979
lfemur -16.4821 1.07818 -16.8974
ltibia 35.8447
lfoot -17.5691 6.45891
ltoes -16.8083
560
root -0.79215 17.6616 -0.541434 0.802766 5.28795 1.61164
lowerback 8.14128 2.11539 -0.646297
upperback 4.98279 2.77093 -1.17601
thorax 0.619578 1.39354 -1.05335
lowerneck 0.381164 -2.69969 -3.90934
upperneck 6.00829 -3.82709 5.47984
head 2.04222 -1.87838 2.37142
rclavicle -2.01518e-014 -7.25564e-015
rhumerus 44.9736 -17.4633 -2.13798
rradius 59.7212
rwrist -37.5065
rhand 5.3148 11.1797
rfingers 7.12502
rthumb 30.6702 -16.2841
lclavicle -2.01518e-014 -7.25564e-015
lhumerus 53.39 16.0364 5.65323
lradius 69.8529
lwrist 29.1767
lhand 10.1508 24.2818
lfingers 7.12502
lthumb 35.2694 50.7745
rfemur -14.4825 -7.35794 20.4934
rtibia 35.8647
rfoot -21.7022 -18.1483
rtoes -8.55333
lfemur -16.644 0.667005 -16.8816
ltibia 35.6544
lfoot -17.3959 6.19282
ltoes -16.6928
561
root -0.814001 17.6622 -0.533661 0.881001 6.14025 1.67737
lowerback 8.08642 2.21352 -0.653527
upperback 4.98021 2.90301 -1.23291
thorax 0.651671 1.461 -1.11522
lowerneck 0.280952 -2.7973 -3.9672
upperneck 6.0773 -3.96355 5.61967
head 2.09614 -1.94258 2.42521
rclavicle -2.51214e-014 -5.26779e-015
rhumerus 45.2071 -17.4715 -2.16549
rradius 59.6434
rwrist -37.5313
rhand 5.31074 11.1506
rfingers 7.12502
rthumb 30.6663 -16.3139
lclavicle -2.51214e-014 -5.26779e-015
lhumerus 53.3298 16.0768 5.59971
lradius 69.7877
lwrist 29.1319
lhand 10.1648 24.273
lfingers 7.12502
lthumb 35.2826 50.7626
rfemur -14.4509 -7.81553 20.5012
rtibia 35.8821
rfoot -21.8686 -18.4356
rtoes -8.25398
lfemur -16.7668 0.27995 -16.9083
ltibia 35.4717
lfoot -17.2507 5.94035
ltoes -16.6123
562
root -0.837405 17.6614 -0.524749 0.929964 6.94114 1.67634
lowerback 8.06593 2.31918 -0.603925
upperback 4.98162 3.04827 -1.26713
thorax 0.671159 1.53594 -1.18765
lowerneck 0.202837 -2.91206 -4.05331
upperneck 6.12846 -4.12346 5.77581
head 2.14335 -2.0191 2.48931
rclavicle -4.43538e-014 1.85864e-014
rhumerus 45.4784 -17.4853 -2.34464
rradius 59.5658
rwrist -37.4639
rhand 5.24116 11.228
rfingers 7.12502
rthumb 30.6 -16.2489
lclavicle -4.43538e-014 1.85864e-014
lhumerus 53.2607 16.0868 5.66363
lradius 69.7463
lwrist 28.9557
lhand 10.2103 24.2496
lfingers 7.12502
lthumb 35.3258 50.729
rfemur -14.4099 -8.16434 20.5961
rtibia 35.9308
rfoot -22.0971 -18.7398
rtoes -7.47839
lfemur -16.8715 -0.0206434 -16.8585
ltibia 35.3116
lfoot -17.1344 5.63433
ltoes -16.3753
563
root -0.859021 17.6603 -0.516939 1.01901 7.75209 1.71281
lowerback 8.05534 2.44725 -0.543917
upperback 4.96802 3.2235 -1.33047
thorax 0.672987 1.62653 -1.29871
lowerneck 0.0727241 -3.07604 -4.26463
upperneck 6.19494 -4.35466 6.0784
head 2.21862 -2.1299 2.62383
rclavicle -5.93869e-015 1.78906e-015
rhumerus 45.5915 -17.5208 -2.51767
rradius 59.5371
rwrist -37.4088
rhand 5.28588 11.343
rfingers 7.12502
rthumb 30.6426 -16.126
lclavicle -5.93869e-015 1.78906e-015
lhumerus 53.227 16.071 5.80401
lradius 69.7483
lwrist 28.7588
lhand 10.2306 24.2084
lfingers 7.12502
lthumb 35.345 50.6832
rfemur -14.4304 -8.51779 20.6572
rtibia 36.0155
rfoot -22.266 -19.0963
rtoes -7.27746
lfemur -17.0164 -0.315063 -16.8826
ltibia 35.1604
lfoot -16.9917 5.6067
ltoes -17.3466
564
root -0.879867 17.6591 -0.510327 1.14617 8.58359 1.74957
lowerback 7.96565 2.53708 -0.532773
upperback 4.98754 3.34677 -1.34876
thorax 0.746701 1.68956 -1.3275
lowerneck -0.220938 -3.18564 -4.60723
upperneck 6.36872 -4.51108 6.39637
head 2.36137 -2.20263 2.78887
rclavicle 2.29348e-014 5.96354e-015
rhumerus 45.8169 -17.5992 -2.60321
rradius 59.5323
rwrist -37.3278
rhand 5.25718 11.3137
rfingers 7.12502
rthumb 30.6152 -16.1604
lclavicle 2.29348e-014 5.96354e-015
lhumerus 52.9846 16.1707 5.81574
lradius 69.7932
lwrist 28.5834
lhand 10.2695 24.2701
lfingers 7.12502
lthumb 35.3819 50.7361
rfemur -14.5221 -8.93321 20.7155
rtibia 36.1288
rfoot -22.4061 -19.411
rtoes -7.29706
lfemur -17.2108 -0.55395 -16.9356
ltibia 35.0271
lfoot -16.7907 5.80295
ltoes -19.7754
565
root -0.901499 17.6561 -0.503014 1.22744 9.36309 1.81606
lowerback 7.91015 2.64384 -0.546029
upperback 5.03266 3.49094 -1.38665
thorax 0.828596 1.76295 -1.3649
lowerneck -0.35611 -3.30309 -4.73626
upperneck 6.33389 -4.66785 6.54055
head 2.3941 -2.27827 2.85628
rclavicle 2.44257e-014 -2.18663e-015
rhumerus 46.1055 -17.6953 -2.72892
rradius 59.5086
rwrist -37.4288
rhand 5.31273 11.232
rfingers 7.12502
rthumb 30.6682 -16.2322
lclavicle 2.44257e-014 -2.18663e-015
lhumerus 52.7865 16.2835 5.74416
lradius 69.7866
lwrist 28.5076
lhand 10.1804 24.2772
lfingers 7.12502
lthumb 35.2974 50.7633
rfemur -14.5758 -9.33468 20.7404
rtibia 36.2838
rfoot -22.573 -19.6827
rtoes -7.05428
lfemur -17.339 -0.816114 -16.9887
ltibia 34.9006
lfoot -16.7008 5.73907
ltoes -20.599
566
root -0.922157 17.6514 -0.495959 1.32841 10.1229 1.87994
lowerback 7.88964 2.7881 -0.522501
upperback 5.01746 3.68547 -1.45409
thorax 0.8343 1.86251 -1.45999
lowerneck -0.217482 -3.49133 -4.67868
upperneck 6.12665 -4.91821 6.57942
head 2.31551 -2.40424 2.85301
rclavicle 2.37299e-014 -1.0635e-014
rhumerus 46.2013 -17.6701 -2.7479
rradius 59.5886
rwrist -37.5248
rhand 5.27465 11.1808
rfingers 7.12502
rthumb 30.6319 -16.2902
lclavicle 2.37299e-014 -1.0635e-014
lhumerus 52.6489 16.2752 5.54993
lradius 69.7765
lwrist 28.7317
lhand 9.89564 24.2351
lfingers 7.12502
lthumb 35.0274 50.7848
rfemur -14.6774 -9.68884 20.7731
rtibia 36.4928
rfoot -22.8768 -19.9262
rtoes -6.3
lfemur -17.4953 -1.17168 -17.0103
ltibia 34.7757
lfoot -16.5816 5.56768
ltoes -20.8246
567
root -0.940753 17.644 -0.48889 1.47026 10.8458 1.97978
lowerback 7.89145 2.94776 -0.494107
upperback 4.93461 3.89887 -1.55073
thorax 0.761182 1.97156 -1.59251
lowerneck 0.013151 -3.69486 -4.66284
upperneck 5.97689 -5.19616 6.67571
head 2.24504 -2.54488 2.87846
rclavicle 2.48481e-014 5.1684e-015
rhumerus 46.2021 -17.5538 -2.76471
rradius 59.7072
rwrist -37.5956
rhand 5.052 11.207
rfingers 7.12502
rthumb 30.4196 -16.3035
lclavicle 2.48481e-014 5.1684e-015
lhumerus 52.4252 16.2591 5.26023
lradius 69.8597
lwrist 29.0317
lhand 9.74192 24.1897
lfingers 7.12502
lthumb 34.8815 50.7733
rfemur -14.8455 -9.90995 20.7762
rtibia 36.7387
rfoot -23.1771 -20.2877
rtoes -5.86584
lfemur -17.6934 -1.54304 -17.0692
ltibia 34.6726
lfoot -16.5047 5.46786
ltoes -21.7352
568
root -0.960682 17.6367 -0.486705 1.62184 11.5316 2.09441
lowerback 7.96747 3.09663 -0.475178
upperback 4.8574 4.09593 -1.64473
thorax 0.652881 2.07198 -1.72049
lowerneck 0.0160462 -3.85005 -4.70095
upperneck 5.99856 -5.40913 6.77376
head 2.27103 -2.64915 2.91341
rclavicle 2.64881e-014 -1.99779e-014
rhumerus 46.326 -17.4893 -2.90159
rradius 59.7941
rwrist -37.6535
rhand 4.88563 11.0655
rfingers 7.12502
rthumb 30.2609 -16.4742
lclavicle 2.64881e-014 -1.99779e-014
lhumerus 52.2559 16.384 5.06488
lradius 69.8402
lwrist 29.2333
lhand 9.84189 24.1197
lfingers 7.12502
lthumb 34.9764 50.6813
rfemur -15.0817 -10.0551 20.7786
rtibia 37.0251
rfoot -23.4686 -20.6556
rtoes -5.30586
lfemur -17.9259 -1.92472 -17.1295
ltibia 34.5892
lfoot -16.4236 5.35729
ltoes -22.2119
569
root -0.98179 17.6292 -0.490063 1.72129 12.2098 2.09014
lowerback 8.12073 3.22438 -0.366601
upperback 4.80483 4.26995 -1.69256
thorax 0.530807 2.16202 -1.8538
lowerneck -0.0641039 -4.00386 -4.80256
upperneck 6.04961 -5.62132 6.92698
head 2.32706 -2.75162 2.97771
rclavicle 2.05991e-014 -1.78906e-015
rhumerus 46.592 -17.4336 -3.10821
rradius 59.8125
rwrist -37.7066
rhand 4.7829 10.9749
rfingers 7.12502
rthumb 30.1629 -16.5828
lclavicle 2.05991e-014 -1.78906e-015
lhumerus 52.1663 16.5074 5.03728
lradius 69.727
lwrist 29.1636
lhand 9.91322 24.085
lfingers 7.12502
lthumb 35.044 50.6308
rfemur -15.3264 -10.2713 20.9167
rtibia 37.3241
rfoot -23.6988 -20.974
rtoes -5.00651
lfemur -18.2013 -2.30866 -17.0481
ltibia 34.5474
lfoot -16.1822 5.24792
ltoes -22.854
